<svg width="30" height="30" viewBox="0 0 30 30" fill="none" xmlns="http://www.w3.org/2000/svg">
<path d="M0 0H19.6607C22.4014 0.00472409 25.0285 1.0962 26.9665 3.03533C28.9044 4.97445 29.9953 7.60311 30 10.3454V22.7183H22.7226V10.3454C22.7179 9.53445 22.3938 8.75802 21.8206 8.18467C21.2473 7.61131 20.4712 7.28728 19.6607 7.28291H0V0Z" fill="#898989"/>
<path d="M30 30H10.2952C7.72081 29.9943 5.24065 29.0301 3.3376 27.2952C1.43455 25.5604 0.244812 23.179 0 20.6147L0 7.28296H7.23333V19.6546C7.23833 20.4656 7.56253 21.242 8.13566 21.8155C8.7088 22.3889 9.48471 22.7133 10.2952 22.7183H30V30Z" fill="white"/>
</svg>
