<?xml version="1.0" encoding="UTF-8"?>
<!DOCTYPE svg PUBLIC "-//W3C//DTD SVG 1.1//EN" "http://www.w3.org/Graphics/SVG/1.1/DTD/svg11.dtd">
<!-- Creator: CorelDRAW X8 -->
<svg xmlns="http://www.w3.org/2000/svg" xml:space="preserve" width="256px" height="241px" version="1.1" style="shape-rendering:geometricPrecision; text-rendering:geometricPrecision; image-rendering:optimizeQuality; fill-rule:evenodd; clip-rule:evenodd"
viewBox="0 0 259 244"
 xmlns:xlink="http://www.w3.org/1999/xlink">
 <defs>
  <style type="text/css">
   <![CDATA[
    .fil0 {fill:#33C5F3;fill-rule:nonzero}
    .fil2 {fill:#898989;fill-rule:nonzero}
    .fil1 {fill:white;fill-rule:nonzero}
   ]]>
  </style>
 </defs>
 <g id="РЎР_x00bb_РѕР_x2116__x0020_2">
  <metadata id="CorelCorpID_0Corel-Layer"/>
  <path class="fil0" d="M213 244l-87 0c-61,0 -111,-50 -111,-111l0 -117c0,-9 7,-16 16,-16l117 0c61,0 111,50 111,111l0 87c0,25 -21,46 -46,46z"/>
  <path class="fil1" d="M216 122c0,43 -36,79 -79,79 -44,0 -79,-36 -79,-79 0,-44 35,-79 79,-79 43,0 79,35 79,79z"/>
  <path class="fil2" d="M206 122c0,38 -31,69 -69,69 -38,0 -69,-31 -69,-69 0,-38 31,-69 69,-69 38,0 69,31 69,69z"/>
  <path class="fil1" d="M236 208c0,7 -6,13 -13,13 -6,0 -12,-6 -12,-13 0,-6 6,-12 12,-12 7,0 13,6 13,12z"/>
  <polygon class="fil2" points="11,127 0,127 4,79 0,31 11,31 "/>
  <g id="_1769897641008">
   <path class="fil1" d="M104 89l43 0c6,0 12,2 16,7 4,4 7,9 7,16l0 27 -16 0 0 -27c0,-2 -1,-4 -2,-5 -1,-1 -3,-2 -5,-2l-43 0 0 -16z"/>
   <path class="fil0" d="M170 155l-43 0c-7,0 -12,-3 -17,-7 -3,-3 -6,-8 -6,-14l0 -29 16 0 0 27c0,2 1,4 2,5 1,1 3,2 5,2l43 0 0 16z"/>
  </g>
 </g>
</svg>
