<svg width="50" height="50" viewBox="0 0 50 50" fill="none" xmlns="http://www.w3.org/2000/svg">
<path d="M39.2578 16.2109C38.7188 16.2109 38.2812 16.6484 38.2812 17.1875C38.2812 17.7266 38.7188 18.1641 39.2578 18.1641C39.7969 18.1641 40.2344 17.7266 40.2344 17.1875C40.2344 16.6484 39.7969 16.2109 39.2578 16.2109Z" fill="#33C5F3"/>
<path d="M47.0703 12.3047H36.3457L33.2494 6.11201C32.7497 5.11289 31.7456 4.49219 30.6289 4.49219H19.3711C18.2542 4.49219 17.2501 5.11289 16.7506 6.11211L13.6543 12.3047H11.7188V11.3281C11.7188 9.7127 10.4045 8.39844 8.78906 8.39844H6.83594C5.22051 8.39844 3.90625 9.7127 3.90625 11.3281V12.3047H2.92969C1.31426 12.3047 0 13.6189 0 15.2344C0 17.8882 0 41.5458 0 42.5781C0 44.1936 1.31426 45.5078 2.92969 45.5078H47.0703C48.6857 45.5078 50 44.1936 50 42.5781C50 39.9243 50 16.2667 50 15.2344C50 13.6189 48.6857 12.3047 47.0703 12.3047ZM18.4976 6.98555C18.6642 6.65234 18.9988 6.44531 19.3711 6.44531H30.6289C31.0012 6.44531 31.3359 6.65234 31.5025 6.98555L34.1621 12.3047H15.8379L18.4976 6.98555ZM5.85938 11.3281C5.85938 10.7896 6.29746 10.3516 6.83594 10.3516H8.78906C9.32754 10.3516 9.76562 10.7896 9.76562 11.3281V12.3047H5.85938V11.3281ZM1.95312 22.0605H14.3019C13.004 24.088 12.3047 26.4641 12.3047 28.9062C12.3047 31.3486 13.0041 33.7151 14.3018 35.7422H1.95312V22.0605ZM25 18.1641C30.8724 18.1641 35.7422 22.9218 35.7422 28.9062C35.7422 34.884 30.8792 39.6484 25 39.6484C19.1155 39.6484 14.2578 34.8787 14.2578 28.9062C14.2578 22.9292 19.1201 18.1641 25 18.1641ZM48.0469 42.5781C48.0469 43.1166 47.6088 43.5547 47.0703 43.5547H2.92969C2.39121 43.5547 1.95312 43.1166 1.95312 42.5781V37.6953H15.8424C18.2286 40.1828 21.5405 41.6016 25 41.6016C28.4601 41.6016 31.7723 40.1824 34.1577 37.6953H48.0469V42.5781ZM48.0469 35.7422H35.6981C36.996 33.7147 37.6953 31.3485 37.6953 28.9062C37.6953 26.464 36.996 24.0978 35.6981 22.0703H48.0469V35.7422ZM48.0469 20.1172H34.1576C31.7715 17.6297 28.4596 16.2109 25 16.2109C21.54 16.2109 18.2278 17.6301 15.8423 20.1172H1.95312V15.2344C1.95312 14.6959 2.39121 14.2578 2.92969 14.2578C3.8165 14.2578 45.6975 14.2578 47.0703 14.2578C47.6088 14.2578 48.0469 14.6959 48.0469 15.2344V20.1172Z" fill="#33C5F3"/>
<path d="M27.9297 8.39844H22.0703C21.531 8.39844 21.0938 8.83564 21.0938 9.375C21.0938 9.91436 21.531 10.3516 22.0703 10.3516H27.9297C28.4689 10.3516 28.9062 9.91436 28.9062 9.375C28.9062 8.83564 28.4689 8.39844 27.9297 8.39844Z" fill="#33C5F3"/>
<path d="M25 20.1172C20.1537 20.1172 16.2109 24.06 16.2109 28.9062C16.2109 33.7525 20.1537 37.6953 25 37.6953C29.8463 37.6953 33.7891 33.7525 33.7891 28.9062C33.7891 24.06 29.8463 20.1172 25 20.1172ZM25 35.7422C21.2307 35.7422 18.1641 32.6756 18.1641 28.9062C18.1641 25.1369 21.2307 22.0703 25 22.0703C28.7693 22.0703 31.8359 25.1369 31.8359 28.9062C31.8359 32.6756 28.7693 35.7422 25 35.7422Z" fill="#33C5F3"/>
<path d="M25 24.0234C22.3076 24.0234 20.1172 26.2139 20.1172 28.9062C20.1172 29.4456 20.5544 29.8828 21.0938 29.8828C21.6331 29.8828 22.0703 29.4456 22.0703 28.9062C22.0703 27.2908 23.3846 25.9766 25 25.9766C25.5393 25.9766 25.9766 25.5394 25.9766 25C25.9766 24.4606 25.5393 24.0234 25 24.0234Z" fill="#33C5F3"/>
<path d="M45.1172 16.2109H43.1641C42.6248 16.2109 42.1875 16.6481 42.1875 17.1875C42.1875 17.7269 42.6248 18.1641 43.1641 18.1641H45.1172C45.6564 18.1641 46.0938 17.7269 46.0938 17.1875C46.0938 16.6481 45.6564 16.2109 45.1172 16.2109Z" fill="#33C5F3"/>
</svg>
