<svg width="22" height="22" viewBox="0 0 22 22" fill="none" xmlns="http://www.w3.org/2000/svg">
<path fill-rule="evenodd" clip-rule="evenodd" d="M9 2C9 1.44772 8.55228 1 8 1C7.44772 1 7 1.44772 7 2V3H6C4.34315 3 3 4.34315 3 6V16C3 17.6569 4.34315 19 6 19H16C17.6569 19 19 17.6569 19 16V6C19 4.34315 17.6569 3 16 3H15V2C15 1.44772 14.5523 1 14 1C13.4477 1 13 1.44772 13 2V3H12V2C12 1.44772 11.5523 1 11 1C10.4477 1 10 1.44772 10 2V3H9V2ZM13 5H12C12 5.55228 11.5523 6 11 6C10.4477 6 10 5.55228 10 5H9C9 5.55228 8.55228 6 8 6C7.44772 6 7 5.55228 7 5H6C5.44772 5 5 5.44772 5 6V16C5 16.5523 5.44772 17 6 17H16C16.5523 17 17 16.5523 17 16V6C17 5.44772 16.5523 5 16 5H15C15 5.55228 14.5523 6 14 6C13.4477 6 13 5.55228 13 5Z" fill="white"/>
<circle cx="8" cy="10" r="1" fill="white"/>
<circle cx="8" cy="13" r="1" fill="white"/>
<circle cx="11" cy="10" r="1" fill="white"/>
<circle cx="11" cy="13" r="1" fill="white"/>
<circle cx="14" cy="10" r="1" fill="white"/>
<circle cx="14" cy="13" r="1" fill="white"/>
</svg>
