<svg width="22" height="22" viewBox="0 0 22 22" fill="none" xmlns="http://www.w3.org/2000/svg">
<path d="M12.6924 19C12.6924 19.5523 12.2446 20 11.6924 20H10.3084C9.75607 20 9.30835 19.5523 9.30835 19V9.02398C9.30835 8.47169 9.75607 8.02398 10.3084 8.02398H11.6924C12.2446 8.02398 12.6924 8.47169 12.6924 9.02398V19ZM8.97235 4.85598C8.97235 4.27998 9.16435 3.79998 9.54835 3.41598C9.94835 3.01598 10.4284 2.81598 10.9884 2.81598C11.5484 2.81598 12.0204 3.01598 12.4044 3.41598C12.8044 3.79998 13.0044 4.27998 13.0044 4.85598C13.0044 5.41598 12.8044 5.89598 12.4044 6.29598C12.0204 6.67998 11.5484 6.87198 10.9884 6.87198C10.4284 6.87198 9.94835 6.67998 9.54835 6.29598C9.16435 5.89598 8.97235 5.41598 8.97235 4.85598Z" fill="white"/>
</svg>
