<svg width="22" height="22" viewBox="0 0 22 22" fill="none" xmlns="http://www.w3.org/2000/svg">
<path fill-rule="evenodd" clip-rule="evenodd" d="M18.6849 3.27138C18.9746 3.54373 19.0755 3.96188 18.9417 4.33636L13.9417 18.3364C13.7956 18.7456 13.4019 19.0136 12.9676 18.9995C12.5334 18.9854 12.1578 18.6925 12.0385 18.2747L10.2166 11.8983L3.85862 10.99C3.41483 10.9266 3.06746 10.5756 3.00868 10.1311C2.9499 9.68671 3.19408 9.25747 3.60613 9.08088L17.6061 3.08088C17.9715 2.92424 18.3951 2.99903 18.6849 3.27138ZM7.67173 9.5144L11.1414 10.0101C11.5319 10.0659 11.8532 10.346 11.9615 10.7253L13.1058 14.7304L16.2874 5.82194L7.67173 9.5144Z" fill="white"/>
</svg>
