<svg width="22" height="22" viewBox="0 0 22 22" fill="none" xmlns="http://www.w3.org/2000/svg">
<path fill-rule="evenodd" clip-rule="evenodd" d="M3 6C3 4.34315 4.34315 3 6 3H16C17.6569 3 19 4.34315 19 6V13.6667C19 15.3235 17.6569 16.6667 16 16.6667H14.3431L11.6139 18.7894C11.2528 19.0702 10.7472 19.0702 10.3861 18.7894L7.65689 16.6667H6C4.34314 16.6667 3 15.3235 3 13.6667V6ZM6 5C5.44772 5 5 5.44772 5 6V13.6667C5 14.219 5.44772 14.6667 6 14.6667H8C8.22238 14.6667 8.43841 14.7408 8.61394 14.8773L11 16.7331L13.3861 14.8773C13.5616 14.7408 13.7776 14.6667 14 14.6667H16C16.5523 14.6667 17 14.219 17 13.6667V6C17 5.44772 16.5523 5 16 5H6Z" fill="white"/>
</svg>
