<svg width="50" height="50" fill="none" xmlns="http://www.w3.org/2000/svg"><mask id="a" maskUnits="userSpaceOnUse" x="0" y="0" width="50" height="50"><path fill="#fff" d="M0 0h50v50H0z"/></mask><g mask="url(#a)"><path d="M43.9605 48.9138c-.7112-6.932-4.41-12.4776-9.8869-14.8856 2.774-2.6269 4.4811-6.4212 4.4811-10.5804C38.6259 15.4942 32.2953 9 24.4711 9c-7.7531 0-14.0836 6.4942-14.0836 14.4478 0 4.1592 1.7783 7.9535 4.4812 10.5804-5.4058 2.408-9.1757 7.9536-9.8159 14.8856-.071.3648-.2133 1.8242.7113 2.9187C6.191 52.3433 7.0445 53 8.5381 53h31.9371c1.4937 0 2.3473-.6567 2.7741-1.1675.8535-1.0945.7824-2.5539.7112-2.9187zm-30.7278-25.466c0-6.3483 5.0502-11.5291 11.2384-11.5291 6.1883 0 11.2385 5.1808 11.2385 11.5291 0 6.3482-5.0502 11.529-11.2385 11.529-6.1882 0-11.2384-5.1078-11.2384-11.529zm27.8115 26.5605c-.0711.073-.2133.1459-.569.1459H8.5382c-.3557 0-.569-.0729-.569-.1459-.1423-.1459-.1423-.4378-.1423-.6567v-.146c.569-6.2023 3.9832-11.0182 8.82-12.7694 2.2761 1.1674 5.5481 1.7512 7.8242 1.8242 2.2762-.073 5.5481-.6568 7.8242-1.8242 4.8368 1.7512 8.251 6.6401 8.8201 12.7694v.146c0 .0729 0 .5108-.0712.6567z" fill="#05252F"/></g></svg>