<?xml version="1.0" encoding="utf-8"?>
<!-- Generator: Adobe Illustrator 24.2.1, SVG Export Plug-In . SVG Version: 6.00 Build 0)  -->
<svg version="1.1" id="Layer_1" xmlns="http://www.w3.org/2000/svg" xmlns:xlink="http://www.w3.org/1999/xlink" x="0px" y="0px"
	 width="22px" height="22px" viewBox="0 0 22 22" style="enable-background:new 0 0 22 22;" xml:space="preserve">
<style type="text/css">
	.st0{fill:#FFFFFF;}
</style>
<path class="st0" d="M13.9,18.6c-0.5,0-1.1-0.1-1.6-0.3c-2-0.7-3.8-1.9-5.3-3.3c-1.5-1.5-2.6-3.3-3.3-5.3C3.4,9,3.3,8.2,3.4,7.4
	c0.1-0.7,0.4-1.4,0.8-2c0.4-0.6,1-1.1,1.6-1.5c0.7-0.4,1.4-0.6,2.2-0.6c0.7,0,1.2,0.5,1.4,1.1l0.6,3c0.1,0.5,0,1-0.4,1.3L9.2,9.4
	c0.8,1.4,2,2.6,3.4,3.4l0.6-0.6c0.3-0.3,0.8-0.5,1.3-0.4l3,0.6c0.6,0.1,1.1,0.7,1.1,1.4c0,0.8-0.2,1.5-0.6,2.2
	c-0.3,0.6-0.9,1.2-1.5,1.6c-0.6,0.4-1.3,0.7-2,0.8C14.3,18.6,14.1,18.6,13.9,18.6z M7.7,5.4c-0.3,0-0.6,0.1-0.8,0.3
	C6.5,5.9,6.1,6.2,5.9,6.6C5.7,6.9,5.5,7.3,5.4,7.7C5.4,8.2,5.4,8.6,5.6,9c0.6,1.7,1.6,3.2,2.9,4.5c1.3,1.3,2.8,2.3,4.5,2.9
	c0.4,0.2,0.9,0.2,1.3,0.1c0.4-0.1,0.8-0.2,1.2-0.5c0.4-0.2,0.6-0.6,0.8-0.9c0.1-0.3,0.2-0.5,0.3-0.8l-2.2-0.5L13,15.3l-0.6-0.3
	c-2.3-1.1-4.1-3-5.3-5.3L6.7,9l1.4-1.4L7.7,5.4z M17.1,14.5C17.1,14.5,17.1,14.5,17.1,14.5L17.1,14.5z"/>
</svg>
