<svg width="22" height="22" viewBox="0 0 22 22" fill="none" xmlns="http://www.w3.org/2000/svg">
<path fill-rule="evenodd" clip-rule="evenodd" d="M9 9C9 6.79086 10.7909 5 13 5C15.2091 5 17 6.79086 17 9C17 11.2091 15.2091 13 13 13C10.7909 13 9 11.2091 9 9ZM13 3C9.68629 3 7 5.68629 7 9C7 10.2958 7.41079 11.4957 8.10925 12.4765L3.29289 17.2929C2.90237 17.6834 2.90237 18.3166 3.29289 18.7071C3.68342 19.0976 4.31658 19.0976 4.70711 18.7071L9.52347 13.8907C10.5043 14.5892 11.7042 15 13 15C16.3137 15 19 12.3137 19 9C19 5.68629 16.3137 3 13 3Z" fill="white"/>
</svg>
