<svg width="22" height="22" viewBox="0 0 22 22" fill="none" xmlns="http://www.w3.org/2000/svg">
<path fill-rule="evenodd" clip-rule="evenodd" d="M13 4C13 3.44772 13.4477 3 14 3H18C18.5523 3 19 3.44772 19 4V8C19 8.55228 18.5523 9 18 9C17.4477 9 17 8.55228 17 8V6.41421L13.7071 9.70711C13.3166 10.0976 12.6834 10.0976 12.2929 9.70711C11.9024 9.31658 11.9024 8.68342 12.2929 8.29289L15.5858 5H14C13.4477 5 13 4.55228 13 4Z" fill="white"/>
<path fill-rule="evenodd" clip-rule="evenodd" d="M13 18C13 18.5523 13.4477 19 14 19H18C18.5523 19 19 18.5523 19 18V14C19 13.4477 18.5523 13 18 13C17.4477 13 17 13.4477 17 14V15.5858L13.7071 12.2929C13.3166 11.9024 12.6834 11.9024 12.2929 12.2929C11.9024 12.6834 11.9024 13.3166 12.2929 13.7071L15.5858 17H14C13.4477 17 13 17.4477 13 18Z" fill="white"/>
<path fill-rule="evenodd" clip-rule="evenodd" d="M9 4C9 3.44772 8.55228 3 8 3H4C3.44772 3 3 3.44772 3 4V8C3 8.55228 3.44772 9 4 9C4.55228 9 5 8.55228 5 8V6.41421L8.29289 9.70711C8.68342 10.0976 9.31658 10.0976 9.70711 9.70711C10.0976 9.31658 10.0976 8.68342 9.70711 8.29289L6.41421 5H8C8.55228 5 9 4.55228 9 4Z" fill="white"/>
<path fill-rule="evenodd" clip-rule="evenodd" d="M9 18C9 18.5523 8.55228 19 8 19H4C3.44772 19 3 18.5523 3 18V14C3 13.4477 3.44772 13 4 13C4.55228 13 5 13.4477 5 14V15.5858L8.29289 12.2929C8.68342 11.9024 9.31658 11.9024 9.70711 12.2929C10.0976 12.6834 10.0976 13.3166 9.70711 13.7071L6.41421 17H8C8.55228 17 9 17.4477 9 18Z" fill="white"/>
</svg>
