<svg width="12" height="10" fill="none" xmlns="http://www.w3.org/2000/svg"><path fill-rule="evenodd" clip-rule="evenodd" d="M11 1h-.2676C10.3866.4022 9.7403 0 9 0S7.6134.4022 7.2676 1H1c-.5523 0-1 .4477-1 1s.4477 1 1 1h6.2676c.3458.5978.9921 1 1.7324 1s1.3866-.4022 1.7324-1H11c.5523 0 1-.4477 1-1s-.4477-1-1-1zM0 8c0-.5523.4477-1 1-1h.2676C1.6134 6.4022 2.2597 6 3 6s1.3866.4022 1.7324 1H11c.5523 0 1 .4477 1 1s-.4477 1-1 1H4.7324c-.3458.5978-.9921 1-1.7324 1s-1.3866-.4022-1.7324-1H1c-.5523 0-1-.4477-1-1z" fill="#fff"/></svg>