<svg version="1" xmlns="http://www.w3.org/2000/svg" width="933.333" height="933.333" viewBox="0 0 700.000000 700.000000"><path d="M81.7 20.6c-.1.1-2.2.4-4.7.7-15.9 2-29.9 14.2-34.5 30.2-1.5 5.2-1.7 20.3-1.6 175.8.1 93.6.3 171.5.5 173.2.2 1.6.7 6.6 1.1 11 .3 4.4.8 8.7 1 9.5.2.8.7 3.5 1 6 .8 5.4 5.3 26.9 6 27.9.2.4.6 2 .9 3.5.8 4.5 8 26 11.1 33.1C68 504.3 70 508.7 74.3 517c25.5 49.1 64.9 90.9 112.7 119.9 9.5 5.7 34.2 18.1 39 19.6 1.4.4 3 1.1 3.5 1.5 1.8 1.4 27.6 9.8 38 12.3 12.5 3.2 21 4.8 31.4 6.3 2.5.3 5.7.8 7.1 1 1.4.2 7.5.7 13.5 1.1 14.2.9 261 .9 269.4 0 57.3-6.2 105-55.1 109.9-112.7.9-11.1.8-259.1-.2-269.4-1.2-13-2.5-22.5-4.1-30.6-2.2-11.2-3-14.6-5.1-22.5-13.6-49.6-38.4-93.7-73.2-129.9-37-38.5-79.9-65-129.7-80.1-10.4-3.1-14.3-4.2-23-6.1-4.9-1.1-17.4-3.4-21.5-3.9-2.5-.3-5.6-.8-7-1-9.3-1.6-37.7-1.9-186.3-1.9-91.8-.1-166.9-.1-167 0zM385 137.4c5.8.4 11.5.8 12.6 1 2 .4 3.6.7 12.9 2.2 2.2.3 4.3.8 4.6 1 .4.2 2.4.6 4.5 1 6.3 1 29.7 9.1 39.8 13.8 13.2 6.1 26.9 14.4 38.9 23.3 10.5 7.9 30.3 26.9 37.3 35.8 2.1 2.7 4.2 5.2 4.5 5.5 2.4 2.2 15.9 24.2 20.6 33.7 11.3 23 16.4 38.8 20.3 62.8 3.1 19.6 3.1 48.4-.1 64.9-.5 2.8-1.2 6.4-1.5 8.1-2.3 13.2-8.7 32.6-15.4 47.2-31.4 67.3-93.6 113.5-166.5 123.7-11.3 1.6-41.7 1.9-51.5.5-15.4-2.2-21.5-3.4-32.5-6.5-49.8-14.1-91.6-44.3-120.3-87-18.7-27.8-30.4-59.2-34.7-93.4-1.4-11.2-1.4-42.7 0-52.5 10.3-71.8 52.4-131.5 115.2-163 17.3-8.7 34.9-14.7 53.4-18.4 14-2.7 16.4-3 31.4-3.7 7.2-.4 13.2-.8 13.3-1 .2-.1.9-.1 1.5.1.7.2 5.9.6 11.7.9zm232.2 415.9c14.3 6.6 22.7 22 19.6 36-2.4 10.7-9.9 20-20.3 24.8-5.2 2.5-7.7 3-13.5 3-6 0-7.9-.5-13-3.2-7.4-3.9-13.3-10.2-16.8-17.7-3.3-7.4-3.6-18.4-.5-25.2 2.4-5.4 9.1-13.1 14-16.1 9-5.6 20.5-6.2 30.5-1.6z"/><path d="M360.7 163.7c-.1 0-3.5.4-7.5.7-10.1.9-14.5 1.6-25.2 4.1-37.4 8.9-71 29-97 58.1-25.2 28.2-41.8 65.8-45.9 103.9-1.3 11.8-.5 38.6 1.3 48.9 5.1 27.5 11.2 44 26.1 69.6 1.5 2.5 6.9 10.4 7.6 11 .3.3 1.8 2.3 3.5 4.5 5.6 7.6 17 19.6 26.5 27.6 5.8 5 21.2 16.2 24.9 18.1 1.4.7 5.5 3 9.2 5 7.4 4 23.6 10.7 30.8 12.8 2.5.7 5.6 1.6 7 2.1 3 1 10.6 2.7 15.8 3.5 2 .3 4.4.7 5.2.9 3.2.8 17.9 1.8 27 1.8 89.5-.1 166.6-63.9 183.4-151.8 2.3-12.3 2.9-17.9 3.1-31.5.2-11.2-.1-15.6-1.9-30.5-1.3-10.8-5.5-26.7-10.2-38.8-25.8-66.8-86.4-112.9-156.9-119.3-7-.6-26.4-1.2-26.8-.7zM.6 106.8c.2 1.5.6 6.7.9 11.7.3 4.9.8 10.6 1 12.5.2 1.9.6 7.3 1 12 .3 4.7.8 10.5 1 13 .2 2.5.6 7.9 1 12 .3 4.1.8 9.5 1 12 .2 2.5.7 7.9 1 12 .7 8.6 1.1 13 2.2 25.5 1.2 13.9 1 22-1.2 45.5-.1 1.9-.6 7.8-1 13s-.8 10.8-1 12.4c-.2 1.6-.7 6.8-1 11.5-.4 4.7-.8 10.2-1 12.1-.2 1.9-.6 7.3-1 12s-.8 10.1-1 12c-.2 1.9-.7 7.8-1 13-.4 5.2-.9 10.2-1 11.1-.2.9 0 2 .3 2.5.4.5 7.1.9 15 .9H30V104.1H.3l.3 2.7z"/></svg>