<svg width="124" height="114" fill="none" xmlns="http://www.w3.org/2000/svg"><path fill-rule="evenodd" clip-rule="evenodd" d="M2 .5C1.1716.5.5 1.1716.5 2v110c0 .828.6716 1.5 1.5 1.5h40c.8284 0 1.5-.672 1.5-1.5V73.5H122c.828 0 1.5-.6716 1.5-1.5V2c0-.8284-.672-1.5-1.5-1.5H2zm81.5 37.3558v27.0746l.1027-.3594a.5.5 0 11.9615.2747l-.8333 2.9167a.4984.4984 0 01-.2309.2957V70.5h37v-2.4252a.5002.5002 0 01-.7-.3156l-.813-2.9167a.5004.5004 0 01.964-.2684l.549 1.9725V3.5h-17.595a.5002.5002 0 01-.91.2426.5005.5005 0 01-.549.1965.4998.4998 0 01-.361-.4391H83.5v31.7828a.5.5 0 010 .6286v1.3157a.5003.5003 0 010 .6287zM80.5 3.5h-37v67h37V37.8558a.5003.5003 0 010-.6287v-1.3157a.5.5 0 010-.6286V3.5zm-40 0h-37v107h37V3.5zm38.5409 35.6789a.5.5 0 00-.7058-.0426l-2.2222 1.9691a.5.5 0 10.6631.7484l2.2223-1.969a.5002.5002 0 00.0426-.7059zm.0041-5.1748a.5.5 0 00-.0515-.7052l-2.2222-1.9199a.5.5 0 10-.6537.7567l2.2222 1.9199a.5.5 0 00.7052-.0515zm-4.4485 9.113a.5001.5001 0 00-.7059-.0427l-2.2222 1.9691a.4999.4999 0 00-.0426.7058.4999.4999 0 00.7058.0426l2.2222-1.969a.5.5 0 00.0427-.7058zm.0041-12.9527a.5.5 0 00-.0515-.7052l-2.2222-1.9198a.5.5 0 10-.6538.7567l2.2222 1.9198a.5.5 0 00.7053-.0515zm-4.4445-3.8396a.5.5 0 00-.0514-.7053l-2.2223-1.9198a.5.5 0 10-.6537.7567l2.2222 1.9198a.5.5 0 00.7052-.0514zm-.0041 20.7304a.5.5 0 00-.7058-.0427l-2.2222 1.9691a.5.5 0 00.6631.7485l2.2223-1.9691a.5.5 0 00.0426-.7058zm-4.4403-24.5701a.5.5 0 00-.0515-.7052L63.438 19.86a.5.5 0 00-.6538.7567l2.2223 1.9199a.5.5 0 00.7052-.0515zm-.0041 28.5082a.5.5 0 00-.7059-.0426l-2.2222 1.969a.5.5 0 00.6632.7485l2.2222-1.9691a.5.5 0 00.0427-.7058zm-4.4403-32.3479a.5.5 0 00-.0515-.7052l-2.2223-1.9198a.5.5 0 10-.6537.7567l2.2222 1.9198a.5.5 0 00.7053-.0515zm-.0042 36.286a.4999.4999 0 00-.7058-.0426l-2.2222 1.969a.5001.5001 0 00.6632.7485l2.2222-1.9691a.4999.4999 0 00.0426-.7058zm-4.4403-40.1256a.5.5 0 00-.0515-.7053l-2.2222-1.9198a.5.5 0 00-.6538.7567l2.2223 1.9199a.5.5 0 00.7052-.0515zm-.0041 44.0637a.5.5 0 00-.7058-.0426l-2.2223 1.9691a.5.5 0 10.6632.7484l2.2222-1.9691a.5.5 0 00.0427-.7058zm-4.4403-47.9034a.5.5 0 00-.0515-.7052L50.1046 8.341a.5.5 0 10-.6537.7568l2.2222 1.9198a.5.5 0 00.7053-.0515zm-.0042 51.8415a.5.5 0 00-.7058-.0426l-2.2222 1.9691a.5.5 0 10.6632.7484l2.2222-1.969a.5.5 0 00.0426-.7059zM47.9339 7.1264a.5.5 0 00-.0515-.7052l-2.2222-1.9198a.5.5 0 10-.6537.7567l2.2222 1.9198a.5.5 0 00.7052-.0515zm-.0041 59.6194a.5.5 0 00-.7058-.0427l-2.2223 1.9691a.5.5 0 00.6632.7484l2.2222-1.969a.5.5 0 00.0427-.7058zM103.085 5.8933a.5006.5006 0 01.616.3475l.812 2.9167a.4998.4998 0 11-.963.2683l-.813-2.9166a.5004.5004 0 01.348-.6159zm-2.198.001c.266.0758.42.3525.344.618l-.833 2.9167a.5005.5005 0 01-.6186.3434.5.5 0 01-.3434-.618l.833-2.9168a.5001.5001 0 01.618-.3433zm3.823 5.8324a.5005.5005 0 01.616.3475l.812 2.9166a.4999.4999 0 11-.963.2684l-.813-2.9167a.5004.5004 0 01.348-.6158zm-5.4892.0009a.5.5 0 01.3434.6181l-.8333 2.9167a.5.5 0 01-.9615-.2748l.8333-2.9166a.5.5 0 01.6181-.3434zm7.1142 5.8324a.5006.5006 0 01.616.3475l.812 2.9167a.4998.4998 0 11-.963.2683l-.813-2.9167a.5004.5004 0 01.348-.6158zm-8.7808.0009a.5.5 0 01.3434.6181l-.8334 2.9167a.5.5 0 11-.9615-.2747l.8333-2.9167a.5001.5001 0 01.6182-.3434zm10.4058 5.8324a.5006.5006 0 01.616.3475l.812 2.9167a.4998.4998 0 11-.963.2683l-.813-2.9166a.5005.5005 0 01.348-.6159zm-13.4541 3.0163l-.0699.2447a.5.5 0 00.9616.2747l.4877-1.7072.886-.7654a.5.5 0 00-.5772-.8113.5.5 0 00-.9247.0925l-.2636.9226-1.1105.9593a.5.5 0 00.6106.7901zm15.0791 2.8171a.5005.5005 0 01.616.3475l.812 2.9166a.4999.4999 0 11-.963.2684l-.813-2.9167a.5004.5004 0 01.348-.6158zm-15.3642.0009a.5.5 0 01.3434.6181l-.8333 2.9167a.5.5 0 01-.9615-.2748l.8333-2.9166a.5.5 0 01.6181-.3434zM111.21 35.06a.5006.5006 0 01.616.3475l.812 2.9167a.4998.4998 0 11-.963.2683l-.813-2.9167a.5004.5004 0 01.348-.6158zm-18.6558.0009a.5.5 0 01.3434.6181l-.8334 2.9167a.5.5 0 11-.9615-.2747l.8333-2.9167a.5.5 0 01.6182-.3434zm20.2808 5.8324a.5006.5006 0 01.616.3475l.812 2.9167a.4998.4998 0 11-.963.2683l-.813-2.9166a.5005.5005 0 01.348-.6159zm-21.9475.0009a.5.5 0 01.3434.6182l-.5827 2.0395 1.6834 1.4916a.4999.4999 0 01.0426.7058.4999.4999 0 01-.7058.0426l-1.3527-1.1986a.5001.5001 0 01-.8797-.439l.0776-.2716-.0674-.0598a.5.5 0 01.3343-.8742l.4889-1.7111a.5.5 0 01.6181-.3434zm23.5725 5.8325a.5005.5005 0 01.616.3475l.812 2.9166a.4999.4999 0 11-.963.2684l-.813-2.9167a.5004.5004 0 01.348-.6158zm-25.2392.0009a.5.5 0 01.3434.6181l-.8333 2.9167a.5.5 0 01-.9615-.2748l.8333-2.9166a.5.5 0 01.6181-.3434zM116.085 52.56a.5006.5006 0 01.616.3475l.812 2.9167a.4998.4998 0 11-.963.2683l-.813-2.9167a.5004.5004 0 01.348-.6158zm-28.5308.0009a.5.5 0 01.3434.6181l-.8334 2.9167a.5.5 0 11-.9615-.2747l.8333-2.9167a.5.5 0 01.6182-.3434zm30.1558 5.8324a.5006.5006 0 01.616.3475l.812 2.9167a.4998.4998 0 11-.963.2683l-.813-2.9166a.5005.5005 0 01.348-.6159zm-31.8225.0009a.5.5 0 01.3434.6182l-.8333 2.9166a.5.5 0 01-.9616-.2747l.8334-2.9167a.5.5 0 01.6181-.3434zm-.2226-19.2579a.5.5 0 00-.6632.7485l2.2223 1.969a.4999.4999 0 10.6631-.7484l-2.2222-1.9691zm-.6584-5.8374a.5.5 0 10.6537.7567l2.2222-1.9199a.5.5 0 10-.6537-.7567l-2.2222 1.9199zm4.4444-3.8397a.5.5 0 10.6538.7567l2.2222-1.9198a.5.5 0 10-.6538-.7567l-2.2222 1.9198zm5.1029 17.5533a.5.5 0 00-.6632.7485l2.2223 1.9691a.5.5 0 00.6631-.7485l-2.2222-1.9691zm3.786-25.2326a.5.5 0 10.6537.7567l2.2225-1.9199a.4995.4995 0 00.051-.7052.4998.4998 0 00-.705-.0515l-2.2222 1.9199zm.6585 29.1708a.5.5 0 10-.6632.7484l2.2219 1.9691a.4998.4998 0 10.663-.7485l-2.2217-1.969zm3.7857-33.0105a.4995.4995 0 00-.051.7052c.18.209.496.232.705.0515l2.222-1.9198a.5005.5005 0 00.052-.7052.5009.5009 0 00-.706-.0515l-2.222 1.9198zm.659 36.9486a.4998.4998 0 10-.663.7484l2.222 1.9691a.5.5 0 10.663-.7485l-2.222-1.969zm3.786-40.7883a.5006.5006 0 00-.052.7053c.181.2089.496.232.705.0515l2.223-1.9199a.4995.4995 0 00.051-.7052.4997.4997 0 00-.705-.0515l-2.222 1.9198zm.658 44.7264a.4998.4998 0 10-.663.7484l2.222 1.9691a.4998.4998 0 10.663-.7484l-2.222-1.9691zm3.786-48.566a.4995.4995 0 00-.051.7052c.18.209.496.232.705.0515l2.222-1.9198a.5005.5005 0 00.052-.7053.501.501 0 00-.706-.0515l-2.222 1.9199zm.659 52.5041a.5003.5003 0 00-.664.7485l2.223 1.969a.499.499 0 00.705-.0426.4998.4998 0 00-.042-.7058l-2.222-1.9691zm3.786-56.3438a.5005.5005 0 00-.052.7052c.181.209.496.232.705.0515l2.223-1.9198c.208-.1805.232-.4963.051-.7052a.4997.4997 0 00-.705-.0515l-2.222 1.9198zm.658 60.2819a.4998.4998 0 10-.663.7485l2.222 1.969a.4998.4998 0 10.663-.7484l-2.222-1.9691z" fill="#05252F"/></svg>