<svg width="84" height="114" fill="none" xmlns="http://www.w3.org/2000/svg"><path fill-rule="evenodd" clip-rule="evenodd" d="M2 .5C1.1716.5.5 1.1716.5 2v110c0 .828.6716 1.5 1.5 1.5h40c.8284 0 1.5-.672 1.5-1.5V73.5H82c.8284 0 1.5-.6716 1.5-1.5V2c0-.8284-.6716-1.5-1.5-1.5H2zm41.5 37.3558v27.0746l.1027-.3594a.5.5 0 11.9615.2747l-.8333 2.9167a.4984.4984 0 01-.2309.2957V70.5h37v-2.4252a.5.5 0 01-.7003-.3156l-.8125-2.9167a.5.5 0 01.9633-.2684l.5495 1.9725V3.5H62.9048a.5003.5003 0 01-.9099.2426.5002.5002 0 01-.9098-.2426H43.5v31.7828a.5.5 0 010 .6286v1.3157a.5003.5003 0 010 .6287zM40.5 3.5h-37v107h37V3.5zm22.5847 2.3933a.5.5 0 01.6158.3475l.8125 2.9167a.5.5 0 11-.9633.2683l-.8125-2.9166a.5.5 0 01.3475-.6159zm-2.1972.001a.5.5 0 01.3434.618l-.8333 2.9167a.5001.5001 0 01-.9616-.2747l.8334-2.9166a.5.5 0 01.6181-.3434zm3.8222 5.8324a.5.5 0 01.6158.3475l.8125 2.9166a.5.5 0 11-.9633.2684l-.8125-2.9167a.5.5 0 01.3475-.6158zm-5.4889.0009a.5.5 0 01.3434.6181l-.8333 2.9167a.5.5 0 01-.9615-.2748l.8333-2.9166a.5.5 0 01.6181-.3434zm7.1139 5.8324a.5.5 0 01.6158.3475l.8125 2.9167a.5.5 0 11-.9633.2683l-.8125-2.9167a.5.5 0 01.3475-.6158zm-8.7805.0009a.5.5 0 01.3434.6181l-.8334 2.9167a.5.5 0 11-.9615-.2747l.8333-2.9167a.5001.5001 0 01.6182-.3434zm10.4055 5.8324a.5.5 0 01.6158.3475l.8125 2.9167a.5.5 0 11-.9633.2683l-.8125-2.9166a.5.5 0 01.3475-.6159zm-13.4538 3.0164l-.0699.2446a.5.5 0 00.9616.2747l.4877-1.7072.886-.7654a.5.5 0 00-.5772-.8113.5.5 0 00-.9247.0925l-.2636.9226-1.1104.9593a.5.5 0 00.6105.7902zm15.0788 2.817a.5.5 0 01.6158.3475l.8125 2.9166a.5.5 0 11-.9633.2684l-.8125-2.9167a.5.5 0 01.3475-.6158zm-15.3639.0009a.5.5 0 01.3434.6181l-.8333 2.9167a.5.5 0 01-.9615-.2748l.8333-2.9166a.5.5 0 01.6181-.3434zM71.2097 35.06a.5.5 0 01.6158.3475l.8125 2.9167a.5.5 0 11-.9633.2683l-.8125-2.9167a.5.5 0 01.3475-.6158zm-18.6555.0009a.5.5 0 01.3434.6181l-.8334 2.9167a.5.5 0 11-.9615-.2747l.8333-2.9167a.5.5 0 01.6182-.3434zm20.2805 5.8324a.5.5 0 01.6158.3475l.8125 2.9167a.5.5 0 11-.9633.2683l-.8125-2.9166a.5.5 0 01.3475-.6159zm-21.9472.0009a.5.5 0 01.3434.6182l-.5827 2.0395 1.6834 1.4916a.4999.4999 0 01.0426.7058.4999.4999 0 01-.7058.0426l-1.3527-1.1986a.5001.5001 0 01-.8797-.439l.0776-.2716-.0674-.0598a.5.5 0 01.3343-.8742l.4889-1.7111a.5.5 0 01.6181-.3434zm23.5722 5.8325a.5.5 0 01.6158.3475l.8125 2.9166a.5.5 0 11-.9633.2684l-.8125-2.9167a.5.5 0 01.3475-.6158zm-25.2389.0009a.5.5 0 01.3434.6181l-.8333 2.9167a.5.5 0 01-.9615-.2748l.8333-2.9166a.5.5 0 01.6181-.3434zM76.0847 52.56a.5.5 0 01.6158.3475l.8125 2.9167a.5.5 0 11-.9633.2683l-.8125-2.9167a.5.5 0 01.3475-.6158zm-28.5305.0009a.5.5 0 01.3434.6181l-.8334 2.9167a.5.5 0 11-.9615-.2747l.8333-2.9167a.5.5 0 01.6182-.3434zm30.1555 5.8324a.5.5 0 01.6158.3475l.8125 2.9167a.5.5 0 11-.9633.2683l-.8125-2.9166a.5.5 0 01.3475-.6159zm-31.8222.0009a.5.5 0 01.3434.6182l-.8333 2.9166a.5.5 0 01-.9616-.2747l.8334-2.9167a.5.5 0 01.6181-.3434zm-.2226-19.2579a.5.5 0 00-.6632.7485l2.2223 1.969a.4999.4999 0 10.6631-.7484l-2.2222-1.9691zm-.6584-5.8374a.5.5 0 00.6537.7567l2.2222-1.9199a.5.5 0 10-.6537-.7567l-2.2222 1.9199zm4.4444-3.8397a.5.5 0 10.6538.7567l2.2222-1.9198a.5.5 0 10-.6538-.7567l-2.2222 1.9198zm5.1029 17.5533a.5.5 0 00-.6632.7485l2.2223 1.9691a.5.5 0 00.6631-.7485l-2.2222-1.9691zm3.786-25.2326a.5.5 0 10.6537.7567l2.2223-1.9199a.5.5 0 10-.6538-.7567l-2.2222 1.9199zm.6585 29.1708a.5.5 0 10-.6632.7484l2.2222 1.9691a.5.5 0 00.6632-.7485l-2.2222-1.969zm3.7859-33.0105a.5.5 0 00.6538.7567l2.2222-1.9198a.5.5 0 10-.6537-.7567l-2.2223 1.9198zm.6585 36.9486a.4999.4999 0 00-.7058.0426.4999.4999 0 00.0426.7058l2.2222 1.9691a.5001.5001 0 00.6632-.7485l-2.2222-1.969zm3.786-40.7883a.5.5 0 00.6537.7568l2.2223-1.9199a.5.5 0 10-.6538-.7567l-2.2222 1.9198zm.6584 44.7264a.5.5 0 10-.6631.7484l2.2222 1.9691a.5.5 0 10.6632-.7484l-2.2223-1.9691zm3.786-48.566a.5.5 0 00.6538.7567l2.2222-1.9198a.5.5 0 10-.6537-.7568l-2.2223 1.9199zm.6585 52.5041a.5.5 0 00-.6632.7485l2.2222 1.969a.5001.5001 0 00.6632-.7484l-2.2222-1.9691zm3.786-56.3438a.5.5 0 10.6537.7567l2.2222-1.9198a.5.5 0 10-.6537-.7567l-2.2222 1.9198zm.6584 60.2819a.5.5 0 00-.6631.7485l2.2222 1.969a.4999.4999 0 10.6632-.7484l-2.2223-1.9691z" fill="#05252F"/></svg>