<svg width="124" height="113" fill="none" xmlns="http://www.w3.org/2000/svg"><path fill-rule="evenodd" clip-rule="evenodd" d="M2 0C1.1716 0 .5.6716.5 1.5v110c0 .828.6716 1.5 1.5 1.5h40c.8284 0 1.5-.672 1.5-1.5V73H122c.828 0 1.5-.6716 1.5-1.5v-70c0-.8284-.672-1.5-1.5-1.5H2zm41.5 3h37v67h-37V3zm77 67h-37v-2.4419a.4984.4984 0 00.2309-.2957l.8333-2.9167a.5.5 0 10-.9615-.2747l-.1027.3594V37.3558a.5003.5003 0 000-.6287v-1.3157a.5.5 0 000-.6286V3h17.585a.4998.4998 0 00.361.4391c.212.0605.43-.0249.549-.1965a.5002.5002 0 00.91-.2426H120.5v63.0466l-.549-1.9725a.5004.5004 0 00-.964.2684l.813 2.9167a.5002.5002 0 00.7.3156V70zm-80-67h-37v107h37V3zm17.2573 29.2574c.3905-.3906 1.0237-.3906 1.4142 0l2.8284 2.8284 2.8285-2.8284c.3905-.3906 1.0236-.3906 1.4142 0 .3905.3905.3905 1.0236 0 1.4142L63.4141 36.5l2.8285 2.8284c.3905.3906.3905 1.0237 0 1.4142-.3906.3906-1.0237.3906-1.4142 0l-2.8285-2.8284-2.8284 2.8284c-.3905.3906-1.0237.3906-1.4142 0-.3905-.3905-.3905-1.0236 0-1.4142L60.5857 36.5l-2.8284-2.8284c-.3905-.3906-.3905-1.0237 0-1.4142zm45.3277-26.864a.5006.5006 0 01.616.3474l.812 2.9167a.4998.4998 0 11-.963.2683l-.813-2.9166a.5004.5004 0 01.348-.6159zm-2.198.0009c.266.0758.42.3525.344.618l-.833 2.9167a.5005.5005 0 01-.6186.3434.5.5 0 01-.3434-.618l.833-2.9168a.5001.5001 0 01.618-.3433zm3.823 5.8324a.5005.5005 0 01.616.3475l.812 2.9166a.4999.4999 0 11-.963.2684l-.813-2.9167a.5004.5004 0 01.348-.6158zm-5.4892.0009a.5.5 0 01.3434.6181l-.8333 2.9167a.5.5 0 01-.9615-.2748l.8333-2.9166a.5.5 0 01.6181-.3434zm7.1142 5.8324a.5006.5006 0 01.616.3475l.812 2.9167a.4998.4998 0 11-.963.2683l-.813-2.9167a.5004.5004 0 01.348-.6158zm-8.7808.0009a.5.5 0 01.3434.6181l-.8334 2.9167a.5.5 0 11-.9615-.2747l.8333-2.9167a.5001.5001 0 01.6182-.3434zm10.4058 5.8324a.5006.5006 0 01.616.3475l.812 2.9167a.4998.4998 0 11-.963.2683l-.813-2.9166a.5005.5005 0 01.348-.6159zm-13.4541 3.0163l-.0699.2447a.5.5 0 00.9616.2747l.4877-1.7072.886-.7654a.5.5 0 00-.5772-.8113.5.5 0 00-.9247.0925l-.2636.9226-1.1105.9593a.5.5 0 00.6106.7901zm15.0791 2.8171a.5005.5005 0 01.616.3475l.812 2.9166a.4999.4999 0 11-.963.2684l-.813-2.9167a.5004.5004 0 01.348-.6158zm-15.3642.0009a.5.5 0 01.3434.6181l-.8333 2.9167a.5.5 0 01-.9615-.2748l.8333-2.9166a.5.5 0 01.6181-.3434zM111.21 34.56a.5006.5006 0 01.616.3475l.812 2.9167a.4998.4998 0 11-.963.2683l-.813-2.9167a.5004.5004 0 01.348-.6158zm-18.6558.0009a.5.5 0 01.3434.6181l-.8334 2.9167a.5.5 0 11-.9615-.2747l.8333-2.9167a.5.5 0 01.6182-.3434zm20.2808 5.8324a.5006.5006 0 01.616.3475l.812 2.9167a.4998.4998 0 11-.963.2683l-.813-2.9166a.5005.5005 0 01.348-.6159zm-21.9475.0009a.5.5 0 01.3434.6182l-.5827 2.0395 1.6834 1.4916a.4999.4999 0 01.0426.7058.4999.4999 0 01-.7058.0426l-1.3527-1.1986a.5001.5001 0 01-.8797-.439l.0776-.2716-.0674-.0598a.5.5 0 01.3343-.8742l.4889-1.7111a.5.5 0 01.6181-.3434zm23.5725 5.8325a.5005.5005 0 01.616.3475l.812 2.9166a.4999.4999 0 11-.963.2684l-.813-2.9167a.5004.5004 0 01.348-.6158zm-25.2392.0009a.5.5 0 01.3434.6181l-.8333 2.9167a.5.5 0 01-.9615-.2748l.8333-2.9166a.5.5 0 01.6181-.3434zM116.085 52.06a.5006.5006 0 01.616.3475l.812 2.9167a.4998.4998 0 11-.963.2683l-.813-2.9167a.5004.5004 0 01.348-.6158zm-28.5308.0009a.5.5 0 01.3434.6181l-.8334 2.9167a.5.5 0 11-.9615-.2747l.8333-2.9167a.5.5 0 01.6182-.3434zm30.1558 5.8324a.5006.5006 0 01.616.3475l.812 2.9167a.4998.4998 0 11-.963.2683l-.813-2.9166a.5005.5005 0 01.348-.6159zm-31.8225.0009a.5.5 0 01.3434.6182l-.8333 2.9166a.5.5 0 01-.9616-.2747l.8334-2.9167a.5.5 0 01.6181-.3434zm-.2226-19.2579a.5.5 0 00-.6632.7485l2.2223 1.969a.4999.4999 0 10.6631-.7484l-2.2222-1.9691zm-.6584-5.8374a.5.5 0 10.6537.7567l2.2222-1.9199a.5.5 0 10-.6537-.7567l-2.2222 1.9199zm4.4444-3.8397a.5.5 0 10.6538.7567l2.2222-1.9198a.5.5 0 10-.6538-.7567l-2.2222 1.9198zm5.1029 17.5533a.5.5 0 00-.6632.7485l2.2223 1.9691a.5.5 0 00.6631-.7485l-2.2222-1.9691zm3.786-25.2326a.5.5 0 10.6537.7567l2.2225-1.9199a.4995.4995 0 00.051-.7052.4998.4998 0 00-.705-.0515l-2.2222 1.9199zm.6585 29.1708a.5.5 0 10-.6632.7484l2.2219 1.9691a.4998.4998 0 10.663-.7485l-2.2217-1.969zm3.7857-33.0105a.4995.4995 0 00-.051.7052c.18.209.496.232.705.0515l2.222-1.9198a.5005.5005 0 00.052-.7052.5009.5009 0 00-.706-.0515l-2.222 1.9198zm.659 36.9486a.4998.4998 0 10-.663.7484l2.222 1.9691a.5.5 0 10.663-.7485l-2.222-1.969zm3.786-40.7883a.5006.5006 0 00-.052.7053c.181.2089.496.232.705.0515l2.223-1.9199a.4995.4995 0 00.051-.7052.4997.4997 0 00-.705-.0515l-2.222 1.9198zm.658 44.7264a.4998.4998 0 10-.663.7484l2.222 1.9691a.4998.4998 0 10.663-.7484l-2.222-1.9691zm3.786-48.566a.4995.4995 0 00-.051.7052c.18.209.496.232.705.0515l2.222-1.9198a.5005.5005 0 00.052-.7053.501.501 0 00-.706-.0515l-2.222 1.9199zm.659 52.5041a.5003.5003 0 00-.664.7485l2.223 1.969a.499.499 0 00.705-.0426.4998.4998 0 00-.042-.7058l-2.222-1.9691zm3.786-56.3438a.5005.5005 0 00-.052.7052c.181.209.496.232.705.0515l2.223-1.9198c.208-.1805.232-.4963.051-.7052a.4997.4997 0 00-.705-.0515l-2.222 1.9198zm.658 60.2819a.4998.4998 0 10-.663.7485l2.222 1.969a.4998.4998 0 10.663-.7484l-2.222-1.9691z" fill="#05252F"/></svg>